<svg width="65" height="70" viewBox="0 0 65 70" fill="none" xmlns="http://www.w3.org/2000/svg">
<path d="M64.9834 12.7628V0L34.4935 20.2905L34.4766 20.2544V50.4736L56.0307 36.1944C56.0307 40.1117 54.1219 43.7582 50.9969 45.8343L34.4766 56.792V69.5367L56.7232 54.7882C61.8583 51.3762 65.0002 45.4011 65.0002 38.9745V19.3518L43.4461 33.631V27.0601L64.9834 12.7628Z" fill="white"/>
<path d="M14.2906 46.0148C11.1487 43.9388 9.25676 40.2923 9.25676 36.3749V6.08355L0 0V38.9565C0 45.383 3.125 51.3582 8.27703 54.7701L30.8952 69.5186V56.7739L14.2906 46.0148Z" fill="#EAC31F"/>
<path d="M30.8612 20.2905L12.0605 7.9248V20.7237L30.8782 32.9991V20.2544L30.8612 20.2905Z" fill="white"/>
</svg>
